<svg width="142" height="23" viewBox="0 0 142 23" fill="none" xmlns="http://www.w3.org/2000/svg">
<path d="M3.9 21.7982H0L9.66 0.438242H12.81L22.47 21.7982H18.63L10.77 3.43824H11.82L3.9 21.7982ZM4.26 16.7882L5.73 13.7882H16.62L18.03 16.7882H4.26Z" fill="black"/>
<path d="M24.7807 21.7982V0.438242H33.9307C36.3507 0.438242 38.1907 0.968242 39.4507 2.02824C40.7107 3.08824 41.3407 4.60824 41.3407 6.58824C41.3407 8.46824 40.6907 9.96824 39.3907 11.0882C38.0907 12.1882 36.2807 12.7382 33.9607 12.7382L36.3607 12.2582C37.1007 12.2582 37.7607 12.4782 38.3407 12.9182C38.9207 13.3582 39.3807 14.0382 39.7207 14.9582L42.3607 21.7982H38.2807L35.5807 14.6882C35.3007 13.9882 34.9007 13.5182 34.3807 13.2782C33.8807 13.0382 33.2507 12.9182 32.4907 12.9182H28.5907V21.7982H24.7807ZM28.5607 9.91824H33.3907C34.8707 9.91824 35.9507 9.64824 36.6307 9.10824C37.3107 8.56824 37.6507 7.75824 37.6507 6.67824C37.6507 5.57824 37.3107 4.76824 36.6307 4.24824C35.9507 3.72824 34.8707 3.46824 33.3907 3.46824H28.5607V9.91824Z" fill="black"/>
<path d="M59.6452 21.7982L48.8152 10.9082L59.2552 0.438242H63.9352L52.3552 11.8982L52.6252 9.76824L64.3852 21.7982H59.6452ZM45.8452 21.7982V0.438242H49.7152V21.7982H45.8452Z" fill="black"/>
<path d="M65.8256 21.7982V0.438242H69.6956V21.7982H65.8256Z" fill="black"/>
<path d="M74.411 21.7982V0.438242H77.501L85.571 18.8282H84.101L92.111 0.438242H95.201V21.7982H91.751L91.721 5.98824L92.741 6.22824L86.081 21.7982H83.531L76.721 6.22824L77.801 5.98824L77.831 21.7982H74.411Z" fill="black"/>
<path d="M109.319 22.0382C107.239 22.0382 105.439 21.5982 103.919 20.7182C102.399 19.8382 101.229 18.5782 100.409 16.9382C99.5893 15.2982 99.1793 13.3582 99.1793 11.1182C99.1793 8.85824 99.5893 6.91824 100.409 5.29824C101.229 3.65824 102.399 2.39824 103.919 1.51824C105.439 0.638242 107.239 0.198242 109.319 0.198242C111.419 0.198242 113.229 0.638242 114.749 1.51824C116.269 2.39824 117.439 3.65824 118.259 5.29824C119.079 6.91824 119.489 8.84824 119.489 11.0882C119.489 13.3482 119.069 15.2982 118.229 16.9382C117.409 18.5782 116.239 19.8382 114.719 20.7182C113.219 21.5982 111.419 22.0382 109.319 22.0382ZM109.319 18.9782C111.279 18.9782 112.819 18.3082 113.939 16.9682C115.059 15.6082 115.619 13.6482 115.619 11.0882C115.619 8.52824 115.059 6.58824 113.939 5.26824C112.819 3.92824 111.279 3.25824 109.319 3.25824C107.379 3.25824 105.849 3.92824 104.729 5.26824C103.609 6.58824 103.049 8.52824 103.049 11.0882C103.049 13.6482 103.609 15.6082 104.729 16.9682C105.849 18.3082 107.379 18.9782 109.319 18.9782Z" fill="black"/>
<path d="M123.453 21.7982V0.438242H126.333L138.633 16.4282L137.823 16.8482V0.438242H141.453V21.7982H138.543L126.303 5.86824L127.083 5.38824V21.7982H123.453Z" fill="black"/>
</svg>
